<svg width="32" height="32" viewBox="0 0 32 32" fill="none" xmlns="http://www.w3.org/2000/svg">
<path d="M3 6.2C3 4.43269 4.43269 3 6.2 3H25.8C27.5673 3 29 4.43269 29 6.2V25.8C29 27.5673 27.5673 29 25.8 29H6.2C4.43269 29 3 27.5673 3 25.8V6.2Z" stroke="#fff" stroke-width="2"/>
<path d="M3.03703 22.7407L9.21395 14.549C10.3923 12.9863 12.8856 13.0369 13.9905 14.6459L16.6225 18.4785C17.475 19.7201 19.2354 20.0893 20.5724 19.3071L21.8421 18.5642C23.0408 17.8628 24.606 18.0793 25.5368 19.0752L28.963 22.7407" stroke="#fff" stroke-width="2" stroke-linecap="round" stroke-linejoin="round"/>
<path d="M23 11C23 12.1046 22.1046 13 21 13C19.8954 13 19 12.1046 19 11C19 9.89543 19.8954 9 21 9C22.1046 9 23 9.89543 23 11Z" stroke="#fff" stroke-width="2"/>
</svg>
