<svg width="32" height="32" viewBox="0 0 32 32" fill="none" xmlns="http://www.w3.org/2000/svg">
<path d="M16.5 28C22.8513 28 28 22.8513 28 16.5C28 10.1487 22.8513 5 16.5 5C10.1487 5 5 10.1487 5 16.5C5 19.1242 5.87898 21.5431 7.35858 23.4784C7.55667 23.7375 7.63356 24.0721 7.54915 24.3871L6.5 26.4175C6.30076 27.161 6.98118 27.8414 7.72475 27.6422C8.46832 27.443 10.0738 26.4175 10.0738 26.4175C10.3391 26.3464 10.6208 26.3895 10.8601 26.5244C12.5265 27.4639 14.4506 28 16.5 28Z" stroke="#fff" stroke-width="2"/>
<path d="M13 16.0833L15.8571 19L21 14" stroke="#fff" stroke-width="2" stroke-linecap="round" stroke-linejoin="round"/>
</svg>
