<svg width="50" height="63" viewBox="0 0 50 63" fill="none" xmlns="http://www.w3.org/2000/svg">
<path d="M6.5 62.5C12.1468 62.5 17.7384 61.3749 22.9554 59.1888C28.1724 57.0027 32.9127 53.7985 36.9056 49.7592C40.8985 45.7198 44.0659 40.9244 46.2268 35.6467C48.3878 30.3691 49.5 24.7125 49.5 19L6.5 19L6.5 62.5Z" fill="#F0E2CE"/>
<path d="M3.28416e-06 43.5C5.7125 43.5 11.3691 42.3749 16.6467 40.1888C21.9244 38.0027 26.7198 34.7985 30.7591 30.7592C34.7985 26.7198 38.0027 21.9244 40.1888 16.6467C42.3748 11.3691 43.5 5.7125 43.5 0L0 1.03712e-05L3.28416e-06 43.5Z" fill="#36858D" fill-opacity="0.1"/>
</svg>
