<svg width="186" height="56" viewBox="0 0 186 56" fill="none" xmlns="http://www.w3.org/2000/svg">
<circle cx="2" cy="54" r="2" transform="rotate(-90 2 54)" fill="#C4C4C4"/>
<circle cx="28" cy="54" r="2" transform="rotate(-90 28 54)" fill="#C4C4C4"/>
<circle cx="54" cy="54" r="2" transform="rotate(-90 54 54)" fill="#C4C4C4"/>
<circle cx="80" cy="54" r="2" transform="rotate(-90 80 54)" fill="#C4C4C4"/>
<circle cx="106" cy="54" r="2" transform="rotate(-90 106 54)" fill="#C4C4C4"/>
<circle cx="132" cy="54" r="2" transform="rotate(-90 132 54)" fill="#C4C4C4"/>
<circle cx="158" cy="54" r="2" transform="rotate(-90 158 54)" fill="#C4C4C4"/>
<circle cx="184" cy="54" r="2" transform="rotate(-90 184 54)" fill="#C4C4C4"/>
<circle cx="2" cy="28" r="2" transform="rotate(-90 2 28)" fill="#C4C4C4"/>
<circle cx="28" cy="28" r="2" transform="rotate(-90 28 28)" fill="#C4C4C4"/>
<circle cx="54" cy="28" r="2" transform="rotate(-90 54 28)" fill="#C4C4C4"/>
<circle cx="80" cy="28" r="2" transform="rotate(-90 80 28)" fill="#C4C4C4"/>
<circle cx="106" cy="28" r="2" transform="rotate(-90 106 28)" fill="#C4C4C4"/>
<circle cx="132" cy="28" r="2" transform="rotate(-90 132 28)" fill="#C4C4C4"/>
<circle cx="158" cy="28" r="2" transform="rotate(-90 158 28)" fill="#C4C4C4"/>
<circle cx="184" cy="28" r="2" transform="rotate(-90 184 28)" fill="#C4C4C4"/>
<circle cx="2" cy="2" r="2" transform="rotate(-90 2 2)" fill="#C4C4C4"/>
<circle cx="28" cy="2" r="2" transform="rotate(-90 28 2)" fill="#C4C4C4"/>
<circle cx="54" cy="2" r="2" transform="rotate(-90 54 2)" fill="#C4C4C4"/>
<circle cx="80" cy="2" r="2" transform="rotate(-90 80 2)" fill="#C4C4C4"/>
<circle cx="106" cy="2" r="2" transform="rotate(-90 106 2)" fill="#C4C4C4"/>
<circle cx="132" cy="2" r="2" transform="rotate(-90 132 2)" fill="#C4C4C4"/>
<circle cx="158" cy="2" r="2" transform="rotate(-90 158 2)" fill="#C4C4C4"/>
<circle cx="184" cy="2" r="2" transform="rotate(-90 184 2)" fill="#C4C4C4"/>
</svg>
