<svg width="18" height="18" viewBox="0 0 18 18" fill="none" xmlns="http://www.w3.org/2000/svg">
<path d="M8.03652 1.46679C8.30785 0.490481 9.69215 0.490482 9.96348 1.46679L11.1995 5.91427C11.3241 6.36249 11.7413 6.66561 12.2061 6.64557L16.8178 6.44677C17.8302 6.40312 18.258 7.71967 17.4133 8.27942L13.5654 10.8293C13.1777 11.0863 13.0183 11.5767 13.181 12.0126L14.7952 16.3372C15.1495 17.2865 14.0296 18.1002 13.2362 17.4698L9.62208 14.5983C9.25785 14.3089 8.74215 14.3089 8.37792 14.5983L4.76378 17.4698C3.97041 18.1002 2.85048 17.2865 3.20483 16.3372L4.81902 12.0126C4.9817 11.5767 4.82234 11.0863 4.43455 10.8293L0.586701 8.27942C-0.257976 7.71967 0.169797 6.40312 1.18217 6.44677L5.79393 6.64557C6.25871 6.66561 6.67591 6.36249 6.80048 5.91427L8.03652 1.46679Z" fill="#FC7D6E"/>
</svg>
