<svg width="24" height="24" viewBox="0 0 24 24" fill="none" xmlns="http://www.w3.org/2000/svg">
<rect x="2.75" y="3.75" width="18.5" height="15.5" rx="2.25" stroke="#FC7D6E" stroke-width="1.5"/>
<path d="M13 11L15.5714 13L19 9" stroke="#FC7D6E" stroke-linecap="round" stroke-linejoin="round"/>
<circle cx="8.5" cy="8.5" r="2" stroke="#FC7D6E"/>
<path d="M11.5 14C11.5 14.2954 11.2859 14.6606 10.7268 14.9801C10.1818 15.2915 9.39561 15.5 8.5 15.5C7.60439 15.5 6.81816 15.2915 6.2732 14.9801C5.71409 14.6606 5.5 14.2954 5.5 14C5.5 13.7046 5.71409 13.3394 6.2732 13.0199C6.81816 12.7085 7.60439 12.5 8.5 12.5C9.39561 12.5 10.1818 12.7085 10.7268 13.0199C11.2859 13.3394 11.5 13.7046 11.5 14Z" stroke="#FC7D6E"/>
</svg>
