<svg width="89" height="35" viewBox="0 0 89 35" fill="none" xmlns="http://www.w3.org/2000/svg">
<path d="M10.3065 11.9026C8.62213 11.9026 7.11822 12.9578 6.54515 14.5417L3.61931 22.6284C3.54037 22.8465 3.5 23.0768 3.5 23.3088V32.0137C3.5 33.1182 4.39543 34.0137 5.5 34.0137H5.94039C7.90631 34.0137 9.5 32.42 9.5 30.4541V25.5C9.5 23.567 11.067 22 13 22C14.933 22 16.5 23.567 16.5 25.5V30.4541C16.5 32.42 18.0937 34.0137 20.0596 34.0137H20.1805C21.2851 34.0137 22.1805 33.1182 22.1805 32.0137V23.3088C22.1805 23.0768 22.1402 22.8465 22.0612 22.6284L19.1354 14.5417C18.5623 12.9578 17.0584 11.9026 15.374 11.9026H10.3065Z" fill="url(#paint0_linear_54_18)"/>
<path d="M16.0375 0H4.62097C3.04513 0 2.32586 1.96551 3.52948 2.98265L3.96854 3.35368C4.31172 3.64369 4.74651 3.8028 5.19582 3.8028H7.71533V5.87347C7.71533 6.8301 8.49084 7.60561 9.44748 7.60561H16.0375C18.1378 7.60561 19.8403 5.90304 19.8403 3.8028C19.8403 1.70257 18.1378 0 16.0375 0Z" fill="#E4230C"/>
<circle cx="15" cy="27.5" r="0.5" fill="#E4230C"/>
<path fill-rule="evenodd" clip-rule="evenodd" d="M10.4465 23.1062L9.17944 12.0644C9.53939 11.9587 9.91812 11.9026 10.3064 11.9026H15.3739C17.0583 11.9026 18.5622 12.9578 19.1353 14.5417L22.0612 22.6284C22.1401 22.8465 22.1805 23.0768 22.1805 23.3088V32.0137C22.1805 33.1182 21.285 34.0137 20.1805 34.0137H20.0595C18.0936 34.0137 16.4999 32.42 16.4999 30.4541V25.5C16.4999 23.567 14.9329 22 12.9999 22C11.9928 22 11.0851 22.4253 10.4465 23.1062Z" fill="url(#paint1_linear_54_18)"/>
<path d="M33.8359 26H32.3203V14.625H33.8359V19.5156H39.5547V14.625H41.0703V26H39.5547V20.7344H33.8359V26Z" fill="black"/>
<path d="M43.1406 21.6875C43.1406 20.8698 43.2969 20.138 43.6094 19.4922C43.9219 18.8464 44.3646 18.3359 44.9375 17.9609C45.5104 17.5807 46.1901 17.3906 46.9766 17.3906C47.7734 17.3906 48.4609 17.5807 49.0391 17.9609C49.6172 18.3359 50.0599 18.8464 50.3672 19.4922C50.6797 20.138 50.8359 20.8698 50.8359 21.6875V21.8672C50.8359 22.6797 50.6797 23.4115 50.3672 24.0625C50.0599 24.7083 49.6172 25.2188 49.0391 25.5938C48.4661 25.9688 47.7839 26.1562 46.9922 26.1562C46.2005 26.1562 45.5156 25.9688 44.9375 25.5938C44.3646 25.2188 43.9219 24.7083 43.6094 24.0625C43.2969 23.4115 43.1406 22.6797 43.1406 21.8672V21.6875ZM44.6016 21.8672C44.6016 22.4245 44.6901 22.9401 44.8672 23.4141C45.0443 23.888 45.3073 24.2682 45.6562 24.5547C46.0104 24.8411 46.4557 24.9844 46.9922 24.9844C47.5234 24.9844 47.9635 24.8411 48.3125 24.5547C48.6667 24.2682 48.9323 23.888 49.1094 23.4141C49.2865 22.9401 49.375 22.4245 49.375 21.8672V21.6875C49.375 21.1302 49.2865 20.6146 49.1094 20.1406C48.9323 19.6667 48.6667 19.2865 48.3125 19C47.9583 18.7083 47.513 18.5625 46.9766 18.5625C46.4505 18.5625 46.0104 18.7083 45.6562 19C45.3021 19.2865 45.0365 19.6667 44.8594 20.1406C44.6875 20.6146 44.6016 21.1302 44.6016 21.6875V21.8672Z" fill="black"/>
<path d="M54.1172 26H52.6562V17.5469H54.0781L54.1094 18.5078C54.3229 18.1641 54.5938 17.8932 54.9219 17.6953C55.2552 17.4922 55.651 17.3906 56.1094 17.3906C56.2083 17.3906 56.3255 17.4036 56.4609 17.4297C56.6016 17.4505 56.6979 17.474 56.75 17.5V18.8359C56.526 18.7943 56.2891 18.7734 56.0391 18.7734C55.5495 18.7734 55.1458 18.8854 54.8281 19.1094C54.5104 19.3281 54.2734 19.625 54.1172 20V26Z" fill="black"/>
<path d="M63.0938 17.5469H64.5859L61.5547 26H60.4453L57.3828 17.5469H58.875L61.0156 24.0234L63.0938 17.5469Z" fill="black"/>
<path d="M66 15.2969C66 15.0677 66.0703 14.8724 66.2109 14.7109C66.3568 14.5495 66.5703 14.4688 66.8516 14.4688C67.1328 14.4688 67.3464 14.5495 67.4922 14.7109C67.6432 14.8724 67.7188 15.0677 67.7188 15.2969C67.7188 15.5208 67.6432 15.7135 67.4922 15.875C67.3464 16.0312 67.1328 16.1094 66.8516 16.1094C66.5703 16.1094 66.3568 16.0312 66.2109 15.875C66.0703 15.7135 66 15.5208 66 15.2969ZM67.5703 26H66.1094V17.5469H67.5703V26Z" fill="black"/>
<path d="M73.2656 24.9844C73.7812 24.9844 74.2318 24.8281 74.6172 24.5156C75.0026 24.2031 75.2161 23.8073 75.2578 23.3281H76.6406C76.6146 23.8281 76.4453 24.2943 76.1328 24.7266C75.8203 25.1536 75.4141 25.5 74.9141 25.7656C74.4141 26.026 73.8646 26.1562 73.2656 26.1562C72.4167 26.1562 71.7135 25.9635 71.1562 25.5781C70.599 25.1875 70.1823 24.6719 69.9062 24.0312C69.6354 23.3906 69.5 22.6927 69.5 21.9375V21.6094C69.5 20.849 69.638 20.151 69.9141 19.5156C70.1901 18.875 70.6068 18.362 71.1641 17.9766C71.7214 17.5859 72.4219 17.3906 73.2656 17.3906C73.9271 17.3906 74.5052 17.526 75 17.7969C75.5 18.0625 75.8906 18.4271 76.1719 18.8906C76.4583 19.349 76.6146 19.8698 76.6406 20.4531H75.2578C75.2214 19.9271 75.0234 19.4818 74.6641 19.1172C74.3099 18.7474 73.8438 18.5625 73.2656 18.5625C72.6771 18.5625 72.2135 18.7135 71.875 19.0156C71.5417 19.3177 71.3047 19.7031 71.1641 20.1719C71.0286 20.6354 70.9609 21.1146 70.9609 21.6094V21.9375C70.9609 22.4323 71.0286 22.9141 71.1641 23.3828C71.2995 23.8516 71.5339 24.237 71.8672 24.5391C72.2057 24.8359 72.6719 24.9844 73.2656 24.9844Z" fill="black"/>
<defs>
<linearGradient id="paint0_linear_54_18" x1="12" y1="21" x2="12.8403" y2="34.0137" gradientUnits="userSpaceOnUse">
<stop stop-color="#E4230C"/>
<stop offset="1" stop-color="#CD1701"/>
</linearGradient>
<linearGradient id="paint1_linear_54_18" x1="8.99992" y1="11.5" x2="21.4999" y2="34.5" gradientUnits="userSpaceOnUse">
<stop stop-color="#CD1701"/>
<stop offset="1" stop-color="#E4230C"/>
</linearGradient>
</defs>
</svg>
